<?xml version="1.0" encoding="UTF-8"?>
<svg id="Layer_1" xmlns="http://www.w3.org/2000/svg" version="1.1" viewBox="0 0 253.9 196.6">
  <!-- Generator: Adobe Illustrator 29.3.1, SVG Export Plug-In . SVG Version: 2.1.0 Build 151)  -->
  <path d="M242.4,161.9c-2.7.7-6.3,4.9-8.3,8.5-1,1.8-2.5,5.1-1.8,7.4,0,0,0,.2,0,.3,0,.3,0,.6.3.9.2.2.4.4.7.7.8.8,1.5,1.6,2.5,1.7,1.1.2,2.6-1.5,3-2.5.4-1.2.6-2.5.7-3.8,0-.5.1-1,.2-1.6.1-1.1.6-1.9,1.3-2.5s1.7-.7,2.8-.5c2,.4,3.5,1.6,4.1,3.3.5,1.6.1,3.3-1.2,4.7-2,2.2-4.3,4.2-6.6,6.2-.9.8-1.9,1.7-2.8,2.5-.7.6-1.3,1.1-1.9,1.5-.3.2-.7.5-1,.7-.9.7-1.8,1.3-2.7,1.6-1.1.3-2.3.2-3.5.2-.3,0-.7,0-1,0-7.6-.3-12-4.1-12.8-11.2-.5-4.3,0-8.5,1.2-11.7,2.2-5.5,5.2-10.7,8.6-15.1,3.7-4.7,7.8-9.3,11.7-13.7,3.1-3.5,6.3-7.1,9.4-10.8,4.6-5.6,9.4-12.2,8.1-21.2-.1-.8-.1-1.7-.2-2.6,0-1.1,0-2.3-.3-3.4-.2-1-.4-2-.6-3.1-.6-3.3-1.2-6.7-2.5-9.8-4.5-10.4-12.8-17.8-25.3-22.8-1.8-.7-3.6-1.1-5.4-1.4-1.7-.3-3.3-.7-4.8-1.2-7.1-2.8-13.8-.9-20.1.8-.9.2-1.7.5-2.6.7-8.4,2.2-15.5,3.7-22.9,4.2-2,.1-3,0-3.4-.5-.5-.5-.5-1.8-.2-3.7.3-2.8.7-5.7,1-8.5.4-4,.9-8.2,1.4-12.3.2-2,.5-3.9.7-5.9.3-2.8.7-5.7,1.1-8.5,1.8-12.9,3.5-17.5,4.3-19.1.1-.2,2.8-5.3,1.6-8.9-.1-.3-.3-.8-.8-1-1.1-.6-2.8.5-5.4,3.2-3,3.3-3.8,8-4.7,13.9-.4,2.2-.7,4.6-1.2,7.1-.5,2.6-.6,5.2-.6,7.8,0,1.8,0,3.6-.2,5.3-1,9.3-2.1,18.6-3.3,28.1-.1,1.2-.6,2.5-.9,2.7-2.2.4-4.1.3-4.5-.3-2.3-2.7-5.5-4.1-9.9-4.2-7.9-.2-18.3-.4-28.8.3-4.2.3-8.4.9-12.6,1.6-4.1.7-8.4,1.3-12.6,1.6-6.4.4-13,.3-19.3.2-2.7,0-5.3,0-8,0-.7,0-1.3,0-2.2-.1-.2,0-.4,0-.6,0,1.8-1.8,3.5-3.6,5.2-5.3,4.2-4.3,8.2-8.4,12.4-12.2,10.6-9.9,19-20.3,25.8-31.7.2-.4.6-.8,1-1.4,1.6-2.1,3.9-5.1,4-9.3,0-1.8-.4-3.7-1.2-5.4v-.2c0,0-.2,0-.2,0-.9-.5-1.7-.6-2.4-.5,0,0-2,0-3.9,1.4-2.5,1.8-3.8,6.4-3.2,11.6-.3,1-.6,2.1-.9,3-2,5.5-5.3,8.9-9.2,12.7-1.8,1.8-3.7,3.7-5.7,6-1.9,2.3-4.2,4.3-6.3,6.2-3.3,3-6.8,6-9.2,10.2-1.9,3.1-4.6,5.8-7.3,8.4-1.4,1.4-2.9,2.8-4.2,4.3-1.7,1.9-3.5,2.6-6,2.4-3.3-.3-6.5-.6-9.8-.8-5.2-.4-10.5-.9-15.7-1.4-2.4-.2-4.9-.6-7.3-.9-2.9-.4-5.9-.8-8.9-1.1-1.1,0-2.2.5-3.2,1-.5.2-.9.5-1.3.6l-.5.2.3.5c.2.4.4.8.6,1.3.5,1,.9,2.1,1.7,2.9,1,.9,2.3,1.5,3.6,2.1.3.1.6.3.9.4,3.3,1.5,6.4.6,9.3-.3.8-.2,1.5-.5,2.3-.7,5.6-1.4,11.1-.7,16.8,0,3.4.4,6.9.9,10.5.9-.7,1.3-1.4,2.5-2.1,3.7-1.8,3-3.4,5.9-4.8,8.9-.5,1.2-1.1,2.3-1.7,3.5-2.1,4.4-4.3,8.9-4.9,13.6-1,8.1-1,17.2-.1,27.9.7,8.8,2.2,16.1,4.6,22.5,3.9,10.4,10.4,19.4,19.4,26.9,6.2,5.2,12.6,7.7,19.5,7.6,12.2-.2,24.6-4.2,37.8-12.2,4-2.4,5.7-6.1,4.8-10.1-.7-3.2-1.7-6.4-2.7-9.5-.5-1.5-1-3.1-1.4-4.6-.2-.7-.4-1.4-.5-2.1-.2-.7-.3-1.4-.5-2-.2-.6-.3-1.1-.4-1.7-.3-1.5-.6-3-1.5-4.2-5.5-6.9-15.6-9.4-23.7-5.7-1.8.8-4,2.9-4.4,4.9-2.2,10.2-.2,14.2,9.2,18.8.5.2.9.5,1.4.7,2.1,1.1,4.1,1.4,5.7.9,1.6-.5,3-1.9,4-4,.6-1.2.7-2.4.4-3.3-.4-.9-1.2-1.6-2.6-2.1-.9-.3-1.7-.6-2.6-.9-2.8-.9-5.6-1.8-8.1-3.2-1.2-.6-2.1-2.8-2.3-4.4,0-.8,1.2-2.6,2.1-2.8,3-.6,6.8-1,10,1.8,7.3,6.4,10.8,12.6,11.4,19.9,0,.9.2,1.6.5,2.3,1.5,3.6.9,5.5-2.2,7.2-8.2,4.5-19.3,9.8-31.7,10.8-5.7.5-10.9-.9-15.4-4.2-7.6-5.5-12.1-13.4-15.8-21.2-5.1-10.8-8.1-22.9-9.4-38.1v-1.2c-.5-4.3-.9-8.8-.2-13,1.6-10.1,7.3-18.8,12.8-27.1l.2-.3c1.7-2.6,4.7-4,8.2-3.9,10.7.3,20.3.3,29.6,0,6.1-.2,12.5-.9,19.1-2.2,13.8-2.6,24.4-3,34.5-1.3,2.2.4,4.4,1.2,6.6,1.9,1.8.7,3.7,1.3,5.7,1.7,2.6.6,3.3,1.5,3.3,4.1-.1,12.8-.1,26,0,39,0,7.6.3,15.6.7,23.6.4,7.4.8,14.9,1.3,22.1.4,5.9.7,11.8,1,17.7,0,1.1,0,2.3-.2,3.5,0,.6-.1,1.2-.2,1.7-.2,2.5-1.6,3.7-4.6,4.1-3.8.6-6.7-1.3-9.8-3.3-5.5-3.5-6.1-9.2-6.3-14.8,0-.9.3-1.7.9-2.3.7-.7,1.6-1.1,2.8-1.1h0c2.1,0,2.6,1.3,2.8,3.6.2,1.9.4,4,1.2,5.9.5,1.2,2,2.9,3.3,2.9h0c1.3,0,3.2-1.6,3.4-2.9.6-3.4.6-6.9-2.8-9.6-.8-.6-1.5-1.4-2.2-2.2-.7-.9-1.5-1.8-2.4-2.4-1.8-1.3-4.1-2.8-5.7-2.3-2,.6-4.6,2.8-5,4.7-2.6,14.3,2.5,24.1,14.7,28.1,3.9,1.3,7.9.9,10.7-1.2,2.4-1.7,3.7-4.2,3.7-7.2,0-10.9-.3-21.5-.7-30.5-.4-8.9-.9-18-1.4-26.7-.3-4.7-.6-9.3-.8-14v-.2c0-.7-.1-1.6.2-2,2.6-3.7,2.4-7.8,2.3-11.8v-.3c-.2-6.6.6-13.4,2.5-21.6.6-2.7,1.8-3.5,4.7-3.6,3.9,0,7.7-.5,11.2-1.3,2.8-.7,5.6-1.5,8.4-2.3,3.6-1.1,7.3-2.1,11-2.8,15-2.8,29.9,4.9,36.1,18.9,2.2,4.9,3,10.6,3.7,16.2l.2,1.7c1.6,11.8-1.5,21.8-9.6,30.5-6.6,7.2-12.4,15.1-18.2,23.2-3.9,5.5-5.9,12.3-5.8,19.6.2,9,4.2,15.1,11.5,17.3,3.1.9,6,1.4,8.8,1.4,5,0,9.5-1.4,13.6-4.3,8.9-6.3,11.9-14.6,8.9-24.9-1.4-4.7-4.3-6.3-9.3-5.1h0Z"/>
</svg>